<svg xmlns="http://www.w3.org/2000/svg"
     viewBox="0 0 64 64"
     fill="none"
     stroke="#FFFFFF"
     stroke-width="2.8"
     stroke-linecap="round"
     stroke-linejoin="round">

  <!-- Pino superior inclinado -->
  <path d="M25 10
           C32 6 45 11 49 20
           C44 24 31 22 22 15
           C21 13 22 11 25 10Z"/>
  <path d="M36 9
           C38 13 43 17 49 20"/>
  <path d="M25 17
           C28 20 36 23 45 23"/>
  <path d="M28 16
           C29 18 31 19 33 20"/>

  <!-- Segundo pino -->
  <path d="M18 25
           C26 20 45 24 50 33
           C45 38 24 36 15 29
           C14 27 15 26 18 25Z"/>
  <path d="M17 31
           C25 36 42 38 49 34"/>

  <!-- Terceiro pino -->
  <path d="M17 40
           C26 35 45 39 50 48
           C44 53 23 51 14 44
           C13 42 14 41 17 40Z"/>
  <path d="M16 46
           C25 51 42 53 49 49"/>

  <!-- Pino inferior -->
  <path d="M19 53
           C28 49 45 52 51 59
           C43 63 24 62 15 57
           C14 55 16 54 19 53Z"/>
  <path d="M17 58
           C26 62 42 63 50 59"/>
  <path d="M43 56
           C41 57 39 58 37 58"/>

</svg>